<?xml version="1.0" standalone="no"?>
<!DOCTYPE svg PUBLIC "-//W3C//DTD SVG 20010904//EN"
 "http://www.w3.org/TR/2001/REC-SVG-20010904/DTD/svg10.dtd">
<svg version="1.0" xmlns="http://www.w3.org/2000/svg"
 width="575.000000pt" height="575.000000pt" viewBox="0 0 575.000000 575.000000"
 preserveAspectRatio="xMidYMid meet">
<metadata>
Created by potrace 1.14, written by Peter Selinger 2001-2017
</metadata>
<g transform="translate(0.000000,575.000000) scale(0.100000,-0.100000)"
fill="#000000" stroke="none">
<path d="M184 5016 l-34 -34 0 -2147 0 -2147 34 -34 34 -34 2662 0 2662 0 34
34 34 34 0 2147 0 2147 -34 34 -34 34 -2662 0 -2662 0 -34 -34z m5277 -125
l29 -29 0 -2017 0 -2017 -29 -29 -29 -29 -2532 0 -2532 0 -29 29 -29 29 0
2017 0 2017 29 29 29 29 2532 0 2532 0 29 -29z"/>
<path d="M4100 1900 l0 -490 95 0 95 0 0 109 0 109 39 31 c21 17 43 31 47 31
5 0 54 -63 108 -140 l99 -140 109 0 c85 0 107 3 102 13 -4 6 -68 92 -141 190
-74 98 -136 183 -138 190 -3 7 56 80 131 162 l137 150 -104 3 -104 3 -92 -98
c-50 -54 -113 -126 -140 -160 -26 -34 -50 -62 -53 -62 -3 -1 -4 132 -2 294 l3
295 -96 0 -95 0 0 -490z"/>
<path d="M1304 2326 c-209 -48 -313 -199 -314 -453 0 -112 13 -179 51 -259 68
-145 237 -227 433 -211 192 17 314 108 366 275 40 128 36 292 -10 416 -40 107
-127 189 -235 222 -71 22 -217 27 -291 10z m239 -171 c77 -37 117 -134 117
-285 0 -208 -65 -299 -221 -308 -113 -7 -184 40 -225 149 -12 31 -17 77 -18
159 0 96 3 124 22 171 40 100 107 142 222 136 37 -2 82 -11 103 -22z"/>
<path d="M440 2271 l0 -58 60 -27 60 -27 0 -294 0 -294 -60 -27 -60 -27 0 -53
0 -54 210 0 210 0 0 55 0 55 -55 25 -55 24 0 296 0 296 55 24 55 25 0 60 0 60
-210 0 -210 0 0 -59z"/>
<path d="M1940 2250 l0 -80 125 0 125 0 0 -380 0 -380 95 0 95 0 0 380 0 380
130 0 130 0 0 80 0 80 -350 0 -350 0 0 -80z"/>
<path d="M2843 2120 c-28 -5 -76 -19 -107 -30 l-56 -21 31 -62 c17 -34 32 -63
33 -64 0 -1 33 9 71 23 152 51 245 17 245 -91 0 -21 -4 -22 -127 -28 -178 -7
-252 -37 -293 -117 -27 -52 -27 -159 -1 -216 36 -79 126 -121 233 -110 74 7
116 25 165 70 l39 35 18 -49 18 -50 70 0 70 0 -4 273 c-4 301 -6 314 -69 374
-19 18 -54 39 -79 48 -54 20 -186 27 -257 15z m214 -437 c-3 -31 -14 -68 -25
-82 -42 -58 -146 -80 -193 -42 -19 15 -24 29 -24 64 0 80 54 116 174 117 l74
0 -6 -57z"/>
<path d="M3610 2124 c-134 -26 -200 -92 -200 -197 1 -99 54 -154 220 -226 126
-55 153 -89 105 -137 -26 -26 -30 -26 -108 -21 -51 3 -108 15 -149 30 l-68 25
0 -79 0 -78 53 -16 c76 -23 191 -29 274 -16 136 23 204 93 204 211 1 70 -21
121 -66 155 -17 14 -78 45 -135 70 -112 49 -140 68 -140 96 0 52 99 63 211 24
l70 -24 24 56 c14 30 25 61 25 68 0 34 -231 76 -320 59z"/>
<path d="M5070 2124 c-134 -26 -200 -92 -200 -197 1 -99 54 -154 220 -226 126
-55 153 -89 105 -137 -26 -26 -30 -26 -108 -21 -51 3 -108 15 -149 30 l-68 25
0 -79 0 -78 53 -16 c76 -23 191 -29 274 -16 136 23 204 93 204 211 1 70 -21
121 -66 155 -17 14 -78 45 -135 70 -112 49 -140 68 -140 96 0 52 99 63 211 24
l70 -24 24 56 c14 30 25 61 25 68 0 34 -231 76 -320 59z"/>
</g>
</svg>
